<svg width="169" height="81" viewBox="0 0 169 81" fill="none" xmlns="http://www.w3.org/2000/svg">
<path d="M41.3064 6.46387V40.655H32.9953V20.1769L25.4148 40.655H18.6564L10.9846 20.0855V40.655H3.13013V6.46387H12.2632L21.3963 30.1417L30.5294 6.46387H41.3064Z" fill="#1B1B4E"/>
<path d="M52.4491 39.2837C50.3649 38.1893 48.6493 36.5039 47.5173 34.4384C46.2303 32.1889 45.5976 29.624 45.6907 27.0334C45.6099 24.4731 46.2423 21.9408 47.5173 19.7198C48.6811 17.6238 50.4255 15.9093 52.5405 14.7831C54.7911 13.6976 57.2573 13.1339 59.7556 13.1339C62.2539 13.1339 64.7201 13.6976 66.9707 14.7831C69.065 15.9374 70.8025 17.645 71.9939 19.7198C73.1935 21.987 73.8206 24.5136 73.8206 27.0791C73.8206 29.6446 73.1935 32.1712 71.9939 34.4384C70.7682 36.4948 68.9981 38.1717 66.8794 39.2837C64.6448 40.4235 62.1723 41.0177 59.6643 41.0177C57.1562 41.0177 54.6838 40.4235 52.4491 39.2837ZM63.6828 32.0615C64.7814 30.7902 65.396 29.1713 65.4181 27.4905C65.5345 25.6655 64.946 23.8654 63.7742 22.4624C63.2562 21.9163 62.6331 21.4808 61.9424 21.1823C61.2518 20.8838 60.5079 20.7284 59.7556 20.7254C59.0008 20.7116 58.2518 20.8594 57.5587 21.159C56.8656 21.4586 56.2446 21.903 55.7371 22.4624C54.5652 23.8654 53.9767 25.6655 54.0931 27.4905C53.9866 29.2993 54.5381 31.0855 55.6457 32.5186C56.1454 33.0878 56.7651 33.5388 57.46 33.8392C58.1549 34.1395 58.9078 34.2818 59.6643 34.2556C60.4554 34.2139 61.2271 33.9952 61.9225 33.6155C62.618 33.2358 63.2195 32.7047 63.6828 32.0615Z" fill="#FECB5C"/>
<path d="M102.407 16.2458C104.406 18.611 105.419 21.6551 105.238 24.7479V40.655H96.9268V25.8449C97.0094 24.3213 96.5209 22.8216 95.5569 21.6396C95.0738 21.1415 94.4895 20.7531 93.8434 20.5008C93.1974 20.2484 92.5047 20.1379 91.8123 20.1769C91.1055 20.1306 90.397 20.2374 89.7351 20.4898C89.0732 20.7422 88.4734 21.1343 87.9764 21.6396C87.0124 22.8216 86.5239 24.3213 86.6064 25.8449V40.655H78.2953V13.2289H86.6064V16.7943C87.4848 15.5876 88.645 14.6146 89.9857 13.9603C91.404 13.3844 92.9333 13.1345 94.4609 13.2289C95.9251 13.1201 97.3954 13.3337 98.7682 13.855C100.141 14.3762 101.383 15.1923 102.407 16.2458Z" fill="#1B1B4E"/>
<path d="M136.473 29.0448H117.659C117.656 30.4786 118.213 31.8569 119.212 32.8844C120.178 33.7844 121.454 34.2757 122.774 34.2557C123.675 34.31 124.571 34.0845 125.339 33.61C126.107 33.1355 126.711 32.4351 127.066 31.6045H136.199C135.736 33.3976 134.882 35.0656 133.697 36.4883C132.513 37.9111 131.028 39.0532 129.35 39.8324C127.448 40.6543 125.393 41.0595 123.322 41.0208C120.864 41.0884 118.434 40.4881 116.289 39.2838C114.205 38.1895 112.489 36.5041 111.357 34.4386C110.16 32.3091 109.473 29.9309 109.348 27.4906C109.273 24.9132 109.871 22.3606 111.083 20.0856C112.208 18.0455 113.886 16.3657 115.924 15.2403C118.129 14.1183 120.575 13.5534 123.048 13.5948C125.492 13.5534 127.908 14.1188 130.08 15.2403C132.081 16.3013 133.731 17.9211 134.829 19.9028C136.023 22.0859 136.622 24.5453 136.565 27.0335C136.565 27.705 136.534 28.3761 136.473 29.0448ZM128.071 24.4738C128.114 23.8208 128.005 23.1668 127.751 22.5637C127.497 21.9606 127.106 21.4251 126.61 20.9998C125.584 20.1499 124.288 19.6958 122.956 19.7199C121.681 19.6982 120.443 20.1547 119.486 20.9998C118.463 21.887 117.811 23.1272 117.659 24.4738H128.071Z" fill="#1B1B4E"/>
<path d="M168.621 13.5034L151.634 53.5454H142.501L149.259 39.741L138.3 13.5034H147.433L153.734 30.4161L159.945 13.5034H168.621Z" fill="#1B1B4E"/>
<path d="M15.0495 51.3919V54.1174H9.21338V72.3072H5.8065V54.1174H0V51.3919H15.0495Z" fill="#35A894"/>
<path d="M21.8355 59.1833C22.3885 58.1168 23.1785 57.2774 24.2055 56.6652C25.2325 56.0332 26.4175 55.7172 27.7605 55.7172V59.3907H26.7532C25.272 59.3907 24.0771 59.756 23.1686 60.4868C22.2799 61.1978 21.8355 62.3828 21.8355 64.0418V72.3072H18.4582V55.9838H21.8355V59.1833Z" fill="#35A894"/>
<path d="M37.7268 55.7764C39.208 55.7764 40.472 56.1418 41.5188 56.8725C42.5655 57.6033 43.3061 58.571 43.7406 59.7758V55.9838H47.1179V72.3072H43.7406V68.5152C43.3061 69.7199 42.5655 70.6877 41.5188 71.4184C40.472 72.1492 39.208 72.5145 37.7268 72.5145C36.3048 72.5145 35.0309 72.1788 33.9051 71.5073C32.7991 70.8358 31.9301 69.868 31.2981 68.604C30.6661 67.34 30.3501 65.8489 30.3501 64.1307C30.3501 62.4322 30.6661 60.9509 31.2981 59.6869C31.9301 58.4229 32.7991 57.4552 33.9051 56.7837C35.0309 56.1122 36.3048 55.7764 37.7268 55.7764ZM38.7636 58.7389C37.2626 58.7389 36.0579 59.2228 35.1494 60.1905C34.2606 61.1385 33.8163 62.4519 33.8163 64.1307C33.8163 65.8094 34.2606 67.1327 35.1494 68.1004C36.0579 69.0484 37.2626 69.5224 38.7636 69.5224C39.7116 69.5224 40.5609 69.3052 41.3114 68.8707C42.0619 68.4164 42.6544 67.7844 43.0889 66.9747C43.5234 66.1649 43.7406 65.2169 43.7406 64.1307C43.7406 63.0642 43.5234 62.126 43.0889 61.3163C42.6544 60.4868 42.0619 59.8548 41.3114 59.4203C40.5609 58.966 39.7116 58.7389 38.7636 58.7389Z" fill="#35A894"/>
<path d="M59.3176 55.7764C61.4309 55.7764 63.1787 56.3393 64.5612 57.465C65.9437 58.571 66.8029 60.0819 67.1386 61.9977H63.554C63.3565 60.9707 62.8726 60.1708 62.1024 59.598C61.3519 59.0055 60.4039 58.7093 59.2584 58.7093C57.9549 58.7093 56.8686 59.1734 55.9996 60.1017C55.1306 61.0102 54.6961 62.3532 54.6961 64.1307C54.6961 65.9082 55.1306 67.261 55.9996 68.1893C56.8686 69.1175 57.9549 69.5817 59.2584 69.5817C60.4039 69.5817 61.3519 69.2854 62.1024 68.6929C62.8726 68.1004 63.3565 67.2907 63.554 66.2637H67.1386C66.8029 68.1794 65.9437 69.7002 64.5612 70.8259C63.1787 71.9517 61.4309 72.5145 59.3176 72.5145C57.7376 72.5145 56.3354 72.1788 55.1109 71.5073C53.9061 70.8358 52.9581 69.868 52.2668 68.604C51.5756 67.34 51.23 65.8489 51.23 64.1307C51.23 62.4322 51.5756 60.9509 52.2668 59.6869C52.9581 58.4229 53.9061 57.4552 55.1109 56.7837C56.3354 56.1122 57.7376 55.7764 59.3176 55.7764Z" fill="#35A894"/>
<path d="M80.5333 72.3072L74.6675 65.049V72.3072H71.2903V50.3847H74.6675V62.9457L80.474 55.9838H84.5327L77.4227 64.101L84.7104 72.3072H80.5333Z" fill="#35A894"/>
<path d="M87.3276 51.2438C87.3276 50.671 87.5251 50.197 87.9201 49.8218C88.3151 49.4465 88.8385 49.2589 89.4902 49.2589C90.142 49.2589 90.6653 49.4465 91.0603 49.8218C91.4751 50.197 91.6825 50.671 91.6825 51.2438C91.6825 51.8165 91.4751 52.2807 91.0603 52.6362C90.6653 52.9917 90.142 53.1694 89.4902 53.1694C88.8385 53.1694 88.3151 52.9917 87.9201 52.6362C87.5251 52.2807 87.3276 51.8165 87.3276 51.2438ZM91.1788 55.9838V72.3072H87.8016V55.9838H91.1788Z" fill="#35A894"/>
<path d="M105.279 55.7172C107.175 55.7172 108.696 56.3294 109.841 57.5539C110.987 58.7784 111.559 60.5263 111.559 62.7975V72.3072H108.182V63.153C108.182 61.6915 107.807 60.5658 107.056 59.7758C106.306 58.966 105.279 58.5612 103.975 58.5612C102.632 58.5612 101.556 58.9957 100.746 59.8647C99.9366 60.7139 99.5317 61.968 99.5317 63.627V72.3072H96.1545V55.9838H99.5317V59.5684C99.9662 58.3439 100.697 57.3959 101.724 56.7244C102.751 56.0529 103.936 55.7172 105.279 55.7172Z" fill="#35A894"/>
<path d="M122.945 55.7764C124.426 55.7764 125.69 56.1418 126.737 56.8725C127.784 57.6033 128.524 58.571 128.959 59.7758V55.9838H132.336V72.4849C132.336 74.0057 132.02 75.3487 131.388 76.5139C130.776 77.6989 129.887 78.6272 128.722 79.2987C127.557 79.9702 126.174 80.3059 124.574 80.3059C122.283 80.3059 120.427 79.7628 119.005 78.6765C117.603 77.5903 116.724 76.1189 116.368 74.2624H119.716C119.992 75.2302 120.526 75.9807 121.316 76.5139C122.106 77.0669 123.113 77.3434 124.337 77.3434C125.68 77.3434 126.786 76.9287 127.655 76.0992C128.524 75.2697 128.959 74.0649 128.959 72.4849V68.5152C128.524 69.7199 127.784 70.6877 126.737 71.4184C125.69 72.1492 124.426 72.5145 122.945 72.5145C121.523 72.5145 120.249 72.1788 119.123 71.5073C118.017 70.8358 117.148 69.868 116.516 68.604C115.884 67.34 115.568 65.8489 115.568 64.1307C115.568 62.4322 115.884 60.9509 116.516 59.6869C117.148 58.4229 118.017 57.4552 119.123 56.7837C120.249 56.1122 121.523 55.7764 122.945 55.7764ZM123.982 58.7389C122.481 58.7389 121.276 59.2228 120.368 60.1905C119.479 61.1385 119.034 62.4519 119.034 64.1307C119.034 65.8094 119.479 67.1327 120.368 68.1004C121.276 69.0484 122.481 69.5224 123.982 69.5224C124.93 69.5224 125.779 69.3052 126.53 68.8707C127.28 68.4164 127.873 67.7844 128.307 66.9747C128.742 66.1649 128.959 65.2169 128.959 64.1307C128.959 63.0642 128.742 62.126 128.307 61.3163C127.873 60.4868 127.28 59.8548 126.53 59.4203C125.779 58.966 124.93 58.7389 123.982 58.7389Z" fill="#35A894"/>
<path d="M59.7555 37.2724C65.4048 37.2724 69.9845 32.6882 69.9845 27.0334C69.9845 21.3785 65.4048 16.7943 59.7555 16.7943C54.1061 16.7943 49.5264 21.3785 49.5264 27.0334C49.5264 32.6882 54.1061 37.2724 59.7555 37.2724Z" fill="#FFC532"/>
<path d="M55.0062 29.959V27.4906C57.6548 27.4906 60.6687 25.9365 60.6687 23.651C60.7733 23.0767 60.7733 22.4883 60.6687 21.914C60.2538 21.2945 59.6881 20.7911 59.0248 20.4513L60.0294 18.3486C60.9701 18.9382 61.7786 19.7164 62.404 20.6341C62.8328 21.5492 63.0512 22.5489 63.0433 23.5596C63.0433 27.4906 58.8421 29.959 55.0062 29.959Z" fill="#FFF2BC"/>
<path d="M64.5958 18.4398H55.1887C54.4826 18.4398 53.9101 19.0128 53.9101 19.7197C53.9101 20.4266 54.4826 20.9996 55.1887 20.9996H64.5958C65.302 20.9996 65.8744 20.4266 65.8744 19.7197C65.8744 19.0128 65.302 18.4398 64.5958 18.4398Z" fill="#FFF2BC"/>
<path d="M64.5958 23.1936H55.1887C54.4826 23.1936 53.9101 23.7666 53.9101 24.4735C53.9101 25.1803 54.4826 25.7534 55.1887 25.7534H64.5958C65.302 25.7534 65.8744 25.1803 65.8744 24.4735C65.8744 23.7666 65.302 23.1936 64.5958 23.1936Z" fill="#FFF2BC"/>
<path d="M55.8657 28.057C55.4103 27.5168 54.6036 27.4484 54.0639 27.9043C53.5242 28.3602 53.4559 29.1677 53.9114 29.7079L60.7439 37.8125C61.1993 38.3527 62.006 38.4211 62.5457 37.9652C63.0854 37.5094 63.1537 36.7019 62.6983 36.1617L55.8657 28.057Z" fill="#FFF2BC"/>
<path d="M69.4366 0.155884L59.5729 11.2177L50.0745 0.155884H69.4366Z" fill="#FECB5C"/>
</svg>
